<?xml version="1.0" encoding="iso-8859-1"?>
<!-- Uploaded to: SVG Repo, www.svgrepo.com, Generator: SVG Repo Mixer Tools -->
<svg fill="#000000" height="800px" width="800px" version="1.1" id="Layer_1" xmlns="http://www.w3.org/2000/svg" xmlns:xlink="http://www.w3.org/1999/xlink" 
	 viewBox="0 0 512.001 512.001" xml:space="preserve">
<g>
	<g>
		<path d="M359.297,214.522l-26.905-7.326c-1.329,2.585-2.963,5.062-4.93,7.371l-23.11,27.141l44.26,12.052
			c10.852,2.954,22.016-3.457,24.961-14.277C376.524,228.648,370.132,217.473,359.297,214.522z"/>
	</g>
</g>
<g>
	<g>
		<path d="M423.585,97.714c-13.257,0-92.901,0-104.437,0c-18.719,0-36.355,10.207-45.497,27.144l-38.889,72.045
			c-1.732,3.209-2.593,7.007-2.399,10.719l0.007-0.008c0.354,6.686,3.993,13.03,10.195,16.578l-14.415,16.93
			c-7.141,8.388-6.132,20.976,2.256,28.117c8.386,7.141,20.975,6.134,28.117-2.256l54.846-64.414
			c7.514-8.825,6.017-22.338-3.678-29.21l-11.258-8.802c0,0,5.828-11.375,10.847-18.905c0.739-1.11,2.118-1.604,3.394-1.218
			c1.276,0.386,2.152,1.561,2.152,2.894v7.637c2.918,1.403,5.706,3.195,8.286,5.393c8.04,6.846,12.709,16.475,13.422,26.571
			l28.184,7.674c21.836,5.945,34.719,28.467,28.772,50.303c-5.943,21.828-28.462,34.717-50.303,28.772l-28.362-7.722l0.009,221.643
			c0,13.476,10.924,24.4,24.4,24.4c13.476,0,24.4-10.924,24.4-24.4V292.572h10.535v195.029c0,13.476,10.924,24.4,24.4,24.4
			c13.476,0,24.4-10.924,24.4-24.4l-0.434-341.877c-0.003-2.347,1.897-4.253,4.244-4.256c2.347-0.003,4.253,1.896,4.256,4.244
			c0,0.01,0,0.02,0,0.03l-0.359,149.281c-0.027,11.23,9.054,20.355,20.284,20.382c0.017,0,0.033,0,0.05,0
			c11.206-0.001,20.305-9.072,20.331-20.284l0.36-149.38c0-0.05,0-0.1,0-0.151C471.571,119.191,449.985,97.714,423.585,97.714z"/>
	</g>
</g>
<g>
	<g>
		<circle cx="368.9" cy="42.141" r="42.141"/>
	</g>
</g>
<g>
	<g>
		<circle cx="169.421" cy="50.761" r="41.343"/>
	</g>
</g>
<g>
	<g>
		<path d="M241.319,292.45c-8.146-0.423-16.222-3.423-22.911-9.12c-16.172-13.769-18.118-38.04-4.349-54.21l12.216-14.347
			l-9.608-62.44l13.227,10.129l19.189-35.551l-12.876-9.86c-9.916-7.594-22.256-11.776-34.748-11.776c-35.721,0-36.428,0-66.586,0
			c-21.349,0-36.865,13.654-46.119,40.584c-14.342,41.735-46.912,130.842-47.239,131.738c-3.783,10.346,1.538,21.799,11.883,25.582
			c10.367,3.787,21.807-1.556,25.583-11.883c0.278-0.76,39.64-109.972,39.64-109.972S105.481,251.171,90.29,329.86
			c-1.328,6.861,3.96,13.2,10.878,13.2c4.29,0,9.459,0,15.22,0v145.005c0,13.219,10.717,23.936,23.936,23.936
			s23.936-10.717,23.936-23.936V343.06c3.441,0,6.893,0,10.334,0v145.005c0,13.219,10.717,23.936,23.936,23.936
			s23.936-10.717,23.936-23.936V343.06c5.763,0,10.931,0,15.22,0c6.955,0,12.206-6.347,10.878-13.2L241.319,292.45z"/>
	</g>
</g>
<g>
	<g>
		<path d="M289.492,0c-5.32,0-9.887,3.194-11.908,7.766C275.563,3.194,270.996,0,265.676,0c-7.191,0-13.021,5.83-13.021,13.021
			c0,14.113,18.057,28.322,23.435,32.243c0.889,0.648,2.097,0.649,2.987,0.001c5.377-3.918,23.435-18.13,23.435-32.243
			C302.513,5.83,296.683,0,289.492,0z"/>
	</g>
</g>
</svg>